<svg width="586" height="249" viewBox="0 0 586 249" fill="none" xmlns="http://www.w3.org/2000/svg">
<g filter="url(#filter0_dddddd_40_1602)">
<path d="M94.2498 1.70452C94.8674 1.70117 95.4791 1.70117 96.0982 1.70117H265.949C266.556 1.70117 267.173 1.70101 267.779 1.70435C268.2 1.70695 268.628 1.71401 269.052 1.72099C269.147 1.72255 269.242 1.72411 269.336 1.72562C270.468 1.73806 271.597 1.83698 272.713 2.02151C273.834 2.21059 274.919 2.56446 275.935 3.07142C277.965 4.10581 279.618 5.74549 280.66 7.75985C281.169 8.76345 281.522 9.83804 281.705 10.9468C281.894 12.0549 281.998 13.1755 282.019 14.2991C282.026 14.8127 282.026 15.3277 282.026 15.8413C282.039 16.448 282.039 17.0562 282.039 17.6695V52.7145C282.039 53.3327 282.039 53.9377 282.026 54.546C282.026 55.066 282.026 55.5697 282.019 56.0898C281.998 57.2133 281.894 58.3338 281.705 59.4419C281.522 60.5514 281.17 61.6266 280.66 62.6307C280.142 63.6299 279.469 64.5422 278.665 65.3338C277.867 66.1323 276.945 66.7987 275.935 67.3076C274.919 67.8159 273.834 68.1719 272.713 68.3638C271.596 68.5469 270.468 68.6459 269.336 68.6599C268.822 68.6713 268.294 68.6778 267.779 68.6778C267.173 68.6812 266.556 68.6812 265.949 68.6812H96.0982C95.4791 68.6812 94.8674 68.6812 94.2499 68.6778C93.7329 68.6778 93.22 68.6713 92.6983 68.6599C91.5647 68.6451 90.4337 68.5461 89.315 68.3638C88.1978 68.1732 87.1159 67.8171 86.1055 67.3076C85.0939 66.799 84.1712 66.1326 83.3727 65.3338C82.5668 64.5452 81.895 63.6324 81.3835 62.6307C80.8698 61.6274 80.5139 60.552 80.3282 59.4419C80.1403 58.334 80.0391 57.2133 80.0257 56.0899C80.0149 55.7342 80.0107 55.3862 80.0065 55.0355C80.0046 54.8733 80.0026 54.7105 80 54.546V15.8413C80.0026 15.677 80.0046 15.5125 80.0066 15.348C80.0108 14.9983 80.015 14.6484 80.0257 14.2993C80.0391 13.1757 80.1402 12.0549 80.3282 10.9469C80.5144 9.83745 80.8703 8.76266 81.3835 7.75968C81.8952 6.7548 82.5669 5.83826 83.3727 5.04532C84.1743 4.25008 85.0964 3.58411 86.1055 3.07158C87.1159 2.56338 88.198 2.20942 89.315 2.02167C90.4335 1.83793 91.5646 1.73901 92.6983 1.72579C92.8052 1.72411 92.9117 1.72236 93.018 1.72062C93.4304 1.71387 93.8388 1.70719 94.2498 1.70452Z" fill="black"/>
</g>
<path d="M94.258 67.2161C93.7435 67.2161 93.2416 67.2095 92.7312 67.1981C91.6739 67.1845 90.6191 67.0933 89.5754 66.9252C88.6022 66.7589 87.6595 66.4496 86.7783 66.0076C85.9051 65.5692 85.1087 64.9945 84.4196 64.3053C83.7204 63.6242 83.1384 62.8343 82.6964 61.9669C82.2497 61.0938 81.9405 60.1579 81.7796 59.1919C81.606 58.1539 81.5121 57.1043 81.4987 56.0522C81.4879 55.6991 81.4739 54.5234 81.4739 54.5234V15.8414C81.4739 15.8414 81.4887 14.6837 81.4987 14.3434C81.5116 13.293 81.605 12.2451 81.7781 11.2088C81.9393 10.2401 82.2487 9.30154 82.6958 8.42559C83.136 7.5587 83.7148 6.76817 84.4096 6.08464C85.1038 5.39463 85.9027 4.81688 86.7774 4.37247C87.6566 3.93191 88.5976 3.6249 89.5688 3.46172C90.6159 3.29196 91.6744 3.20022 92.7354 3.18727L94.2588 3.1665H267.771L269.313 3.18777C270.364 3.20016 271.413 3.29117 272.451 3.46004C273.432 3.62532 274.383 3.93452 275.272 4.3775C277.024 5.27308 278.45 6.68998 279.349 8.42961C279.789 9.29956 280.094 10.2305 280.253 11.1908C280.428 12.2357 280.526 13.2918 280.546 14.3508C280.551 14.825 280.551 15.3344 280.551 15.8414C280.565 16.4694 280.565 17.067 280.565 17.6696V52.7144C280.565 53.3228 280.565 53.9164 280.551 54.5149C280.551 55.0594 280.551 55.5582 280.545 56.0716C280.525 57.1118 280.428 58.1491 280.256 59.1753C280.098 60.1483 279.791 61.0914 279.344 61.9717C278.899 62.8297 278.321 63.6128 277.63 64.2921C276.94 64.9849 276.142 65.5631 275.267 66.0042C274.38 66.4496 273.431 66.76 272.451 66.9249C271.407 67.0939 270.352 67.1852 269.295 67.198C268.79 67.2097 268.285 67.2157 267.78 67.2159L265.95 67.2192L94.258 67.2161Z" fill="black"/>
<path d="M121.819 35.6951C121.837 34.2975 122.212 32.9271 122.907 31.7115C123.603 30.4959 124.597 29.4746 125.798 28.7425C125.035 27.6622 124.029 26.7732 122.859 26.146C121.69 25.5188 120.389 25.1707 119.059 25.1295C116.224 24.8343 113.476 26.812 112.031 26.812C110.558 26.812 108.334 25.1588 105.938 25.2077C104.389 25.2573 102.879 25.7041 101.555 26.5046C100.232 27.3051 99.1401 28.4319 98.3863 29.7754C95.121 35.3825 97.5566 43.6227 100.685 48.1549C102.25 50.3743 104.078 52.8532 106.472 52.7653C108.814 52.669 109.688 51.2842 112.515 51.2842C115.316 51.2842 116.136 52.7653 118.578 52.7094C121.091 52.669 122.674 50.4803 124.184 48.24C125.309 46.6586 126.174 44.9109 126.748 43.0616C125.288 42.4491 124.042 41.424 123.166 40.1141C122.289 38.8041 121.821 37.2672 121.819 35.6951ZM117.207 22.1487C118.577 20.5174 119.252 18.4206 119.089 16.3037C116.996 16.5217 115.062 17.5139 113.673 19.0827C112.994 19.849 112.474 20.7406 112.143 21.7064C111.812 22.6722 111.676 23.6933 111.742 24.7113C112.789 24.722 113.825 24.497 114.772 24.0531C115.719 23.6092 116.551 22.958 117.207 22.1487ZM151.422 47.147H143.431L141.511 52.7673H138.126L145.696 31.9733H149.213L156.783 52.7673H153.34L151.422 47.147ZM144.258 44.5534H150.593L147.47 35.432H147.383L144.258 44.5534ZM173.131 45.188C173.131 49.8991 170.588 52.9259 166.751 52.9259C165.779 52.9763 164.813 52.7543 163.962 52.2852C163.112 51.8161 162.411 51.1189 161.942 50.2735H161.869V57.7826H158.731V37.6069H161.769V40.1285H161.826C162.318 39.2871 163.03 38.5936 163.887 38.1216C164.744 37.6496 165.714 37.417 166.694 37.4483C170.573 37.4483 173.131 40.4899 173.131 45.1878V45.188ZM169.905 45.188C169.905 42.1186 168.306 40.1007 165.866 40.1007C163.468 40.1007 161.856 42.161 161.856 45.1878C161.856 48.2426 163.468 50.2884 165.866 50.2884C168.306 50.2884 169.905 48.2852 169.905 45.1878V45.188ZM189.955 45.188C189.955 49.8991 187.413 52.9259 183.576 52.9259C182.604 52.9763 181.637 52.7543 180.787 52.2852C179.936 51.8161 179.236 51.1189 178.766 50.2735H178.694V57.7826H175.556V37.6069H178.593V40.1285H178.651C179.142 39.2871 179.854 38.5936 180.711 38.1216C181.568 37.6496 182.538 37.417 183.518 37.4483C187.398 37.4483 189.955 40.4899 189.955 45.1878V45.188ZM186.73 45.188C186.73 42.1186 185.131 40.1007 182.69 40.1007C180.293 40.1007 178.68 42.161 178.68 45.1878C178.68 48.2426 180.293 50.2884 182.69 50.2884C185.131 50.2884 186.73 48.2852 186.73 45.1878V45.188ZM201.075 46.9737C201.307 49.0357 203.327 50.3897 206.087 50.3897C208.732 50.3897 210.634 49.0357 210.634 47.1763C210.634 45.5623 209.487 44.5959 206.77 43.9336L204.052 43.2844C200.202 42.3621 198.415 40.5764 198.415 37.6787C198.415 34.0909 201.568 31.6267 206.044 31.6267C210.474 31.6267 213.512 34.0909 213.614 37.6787H210.446C210.257 35.6037 208.527 34.351 205.999 34.351C203.472 34.351 201.742 35.6184 201.742 37.4629C201.742 38.9331 202.847 39.7981 205.549 40.4602L207.859 41.0229C212.161 42.0317 213.948 43.7456 213.948 46.787C213.948 50.6774 210.824 53.1139 205.854 53.1139C201.205 53.1139 198.065 50.7345 197.863 46.9735L201.075 46.9737ZM220.72 34.0192V37.6069H223.627V40.0712H220.72V48.429C220.72 49.7274 221.302 50.3324 222.58 50.3324C222.925 50.3265 223.27 50.3024 223.612 50.2604V52.7102C223.038 52.8166 222.454 52.8647 221.869 52.8539C218.775 52.8539 217.568 51.7012 217.568 48.7609V40.0712H215.345V37.6069H217.568V34.0192H220.72ZM225.31 45.188C225.31 40.4179 228.143 37.4205 232.56 37.4205C236.992 37.4205 239.812 40.4179 239.812 45.188C239.812 49.9711 237.007 52.9554 232.56 52.9554C228.115 52.9554 225.31 49.9711 225.31 45.188ZM236.615 45.188C236.615 41.9159 235.103 39.9845 232.56 39.9845C230.018 39.9845 228.507 41.9304 228.507 45.188C228.507 48.4732 230.018 50.3897 232.56 50.3897C235.103 50.3897 236.615 48.4732 236.615 45.188ZM242.399 37.6069H245.391V40.1873H245.464C245.666 39.3814 246.142 38.6691 246.812 38.1703C247.482 37.6715 248.304 37.4166 249.141 37.4483C249.502 37.447 249.863 37.4859 250.216 37.5643V40.4751C249.759 40.3368 249.283 40.2733 248.806 40.2871C248.35 40.2687 247.896 40.3484 247.474 40.5207C247.052 40.693 246.673 40.9538 246.362 41.2851C246.052 41.6165 245.817 42.0106 245.674 42.4404C245.532 42.8702 245.485 43.3255 245.536 43.7751V52.7673H242.399V37.6069ZM264.682 48.3145C264.26 51.0667 261.558 52.9554 258.1 52.9554C253.653 52.9554 250.893 50.0005 250.893 45.2599C250.893 40.5046 253.668 37.4205 257.968 37.4205C262.198 37.4205 264.857 40.3018 264.857 44.8985V45.9647H254.061V46.1527C254.011 46.7106 254.081 47.2727 254.267 47.8016C254.453 48.3305 254.751 48.8141 255.14 49.2202C255.528 49.6264 256 49.9458 256.523 50.1573C257.046 50.3688 257.608 50.4676 258.173 50.447C258.914 50.5159 259.658 50.3456 260.294 49.9614C260.93 49.5771 261.425 48.9995 261.703 48.3145H264.682ZM254.076 43.7898H261.718C261.746 43.2881 261.669 42.7861 261.492 42.3152C261.316 41.8443 261.043 41.4147 260.691 41.0534C260.339 40.6921 259.915 40.4068 259.447 40.2156C258.978 40.0243 258.475 39.9312 257.968 39.942C257.457 39.939 256.951 40.0363 256.478 40.2285C256.005 40.4206 255.575 40.7037 255.214 41.0615C254.852 41.4192 254.565 41.8445 254.369 42.3128C254.174 42.781 254.074 43.283 254.076 43.7898ZM143.865 16.3216C144.523 16.2747 145.183 16.3733 145.798 16.6101C146.412 16.847 146.967 17.2162 147.42 17.6911C147.874 18.1661 148.215 18.7349 148.42 19.3566C148.625 19.9783 148.688 20.6374 148.605 21.2863C148.605 24.4783 146.866 26.3132 143.865 26.3132H140.226V16.3214L143.865 16.3216ZM141.791 24.9001H143.69C144.16 24.9279 144.631 24.8514 145.067 24.6763C145.504 24.5011 145.895 24.2316 146.214 23.8873C146.532 23.5431 146.769 23.1329 146.907 22.6864C147.045 22.24 147.081 21.7686 147.012 21.3066C147.076 20.8464 147.036 20.3779 146.896 19.9347C146.756 19.4916 146.518 19.0846 146.201 18.7432C145.883 18.4017 145.494 18.1341 145.06 17.9595C144.625 17.785 144.158 17.7078 143.69 17.7335H141.791V24.9001ZM150.373 22.5397C150.325 22.0442 150.382 21.5442 150.541 21.0719C150.699 20.5995 150.955 20.1653 151.293 19.7969C151.63 19.4285 152.042 19.1342 152.501 18.9328C152.96 18.7314 153.456 18.6274 153.958 18.6274C154.46 18.6274 154.956 18.7314 155.415 18.9328C155.874 19.1342 156.286 19.4285 156.623 19.7969C156.961 20.1653 157.217 20.5995 157.376 21.0719C157.534 21.5442 157.591 22.0442 157.543 22.5397C157.592 23.0358 157.536 23.5365 157.378 24.0097C157.22 24.4829 156.964 24.9181 156.626 25.2873C156.289 25.6565 155.877 25.9515 155.417 26.1534C154.958 26.3553 154.461 26.4596 153.958 26.4596C153.456 26.4596 152.959 26.3553 152.499 26.1534C152.04 25.9515 151.628 25.6565 151.29 25.2873C150.952 24.9181 150.696 24.4829 150.538 24.0097C150.38 23.5365 150.324 23.0358 150.373 22.5397ZM156 22.5397C156 20.9052 155.26 19.9494 153.961 19.9494C152.656 19.9494 151.923 20.9052 151.923 22.5397C151.923 24.1872 152.657 25.1357 153.961 25.1357C155.26 25.1357 156 24.1807 156 22.5397ZM167.075 26.313H165.519L163.947 20.7597H163.829L162.264 26.313H160.722L158.627 18.7727H160.149L161.511 24.5263H161.623L163.186 18.7727H164.625L166.188 24.5263H166.307L167.662 18.7727H169.163L167.075 26.313ZM170.925 18.7729H172.37V19.9707H172.482C172.672 19.5404 172.993 19.1797 173.399 18.9389C173.806 18.6981 174.278 18.5891 174.751 18.6272C175.12 18.5996 175.492 18.6549 175.837 18.7891C176.183 18.9232 176.493 19.1327 176.746 19.402C176.999 19.6713 177.187 19.9936 177.297 20.345C177.407 20.6963 177.436 21.0677 177.382 21.4317V26.3128H175.882V21.8054C175.882 20.5937 175.351 19.9911 174.241 19.9911C173.99 19.9795 173.739 20.0219 173.506 20.1154C173.273 20.2089 173.063 20.3513 172.891 20.5327C172.718 20.7142 172.587 20.9305 172.507 21.1669C172.427 21.4032 172.399 21.6539 172.426 21.9019V26.313H170.925V18.7729ZM179.773 15.8293H181.273V26.313H179.773V15.8293ZM183.359 22.5397C183.311 22.0441 183.368 21.5441 183.527 21.0717C183.685 20.5993 183.941 20.1649 184.279 19.7965C184.617 19.4281 185.028 19.1338 185.487 18.9323C185.946 18.7309 186.443 18.6268 186.945 18.6268C187.447 18.6268 187.943 18.7309 188.402 18.9323C188.861 19.1338 189.273 19.4281 189.61 19.7965C189.948 20.1649 190.204 20.5993 190.363 21.0717C190.521 21.5441 190.578 22.0441 190.53 22.5397C190.579 23.0357 190.522 23.5363 190.364 24.0094C190.206 24.4824 189.95 24.9174 189.612 25.2865C189.275 25.6555 188.863 25.9504 188.404 26.1522C187.944 26.354 187.447 26.4583 186.945 26.4583C186.442 26.4583 185.945 26.354 185.486 26.1522C185.026 25.9504 184.615 25.6555 184.277 25.2865C183.939 24.9174 183.683 24.4824 183.525 24.0094C183.367 23.5363 183.31 23.0357 183.359 22.5397ZM188.986 22.5397C188.986 20.9052 188.246 19.9494 186.947 19.9494C185.642 19.9494 184.909 20.9052 184.909 22.5397C184.909 24.1872 185.643 25.1357 186.947 25.1357C188.246 25.1357 188.986 24.1807 188.986 22.5397ZM192.11 24.1807C192.11 22.8233 193.129 22.0408 194.938 21.9297L196.997 21.8119V21.1611C196.997 20.3647 196.466 19.9151 195.441 19.9151C194.603 19.9151 194.023 20.22 193.856 20.7531H192.403C192.557 19.4579 193.785 18.6274 195.51 18.6274C197.416 18.6274 198.491 19.5684 198.491 21.1611V26.313H197.046V25.2534H196.928C196.687 25.6335 196.348 25.9433 195.947 26.1513C195.546 26.3593 195.096 26.458 194.644 26.4373C194.325 26.4702 194.002 26.4364 193.697 26.3381C193.392 26.2398 193.111 26.0792 192.872 25.8666C192.634 25.654 192.442 25.3941 192.311 25.1037C192.18 24.8134 192.111 24.4989 192.11 24.1807ZM196.997 23.5363V22.9059L195.14 23.0236C194.093 23.0931 193.619 23.4464 193.619 24.111C193.619 24.7897 194.212 25.1847 195.028 25.1847C195.267 25.2087 195.509 25.1848 195.739 25.1143C195.968 25.0438 196.181 24.9283 196.365 24.7745C196.549 24.6207 196.699 24.4318 196.808 24.2191C196.916 24.0064 196.981 23.7742 196.997 23.5363ZM200.463 22.5397C200.463 20.157 201.698 18.6478 203.619 18.6478C204.094 18.6261 204.565 18.7389 204.978 18.9732C205.391 19.2074 205.728 19.5534 205.95 19.9707H206.062V15.8291H207.563V26.3128H206.125V25.1214H206.006C205.767 25.5359 205.418 25.8775 204.997 26.1094C204.577 26.3413 204.1 26.4547 203.619 26.4371C201.685 26.4371 200.463 24.9277 200.463 22.5395V22.5397ZM202.013 22.5397C202.013 24.1388 202.773 25.1013 204.044 25.1013C205.309 25.1013 206.09 24.1251 206.09 22.546C206.09 20.9747 205.3 19.9846 204.044 19.9846C202.781 19.9846 202.013 20.9534 202.013 22.5397ZM213.77 22.5397C213.723 22.0442 213.78 21.5442 213.938 21.0719C214.097 20.5995 214.353 20.1653 214.69 19.7969C215.028 19.4285 215.439 19.1342 215.898 18.9328C216.357 18.7314 216.854 18.6274 217.356 18.6274C217.858 18.6274 218.354 18.7314 218.813 18.9328C219.272 19.1342 219.683 19.4285 220.021 19.7969C220.359 20.1653 220.615 20.5995 220.773 21.0719C220.932 21.5442 220.989 22.0442 220.941 22.5397C220.99 23.0358 220.933 23.5365 220.775 24.0097C220.617 24.4829 220.361 24.9181 220.024 25.2873C219.686 25.6565 219.274 25.9515 218.815 26.1534C218.355 26.3553 217.858 26.4596 217.356 26.4596C216.853 26.4596 216.356 26.3553 215.897 26.1534C215.437 25.9515 215.025 25.6565 214.688 25.2873C214.35 24.9181 214.094 24.4829 213.936 24.0097C213.778 23.5365 213.722 23.0358 213.77 22.5397ZM219.398 22.5397C219.398 20.9052 218.657 19.9494 217.358 19.9494C216.054 19.9494 215.32 20.9052 215.32 22.5397C215.32 24.1872 216.054 25.1357 217.358 25.1357C218.657 25.1357 219.398 24.1807 219.398 22.5397ZM222.954 18.7729H224.399V19.9707H224.511C224.701 19.5404 225.022 19.1797 225.428 18.9389C225.835 18.6981 226.307 18.5891 226.779 18.6272C227.149 18.5996 227.521 18.6549 227.866 18.7891C228.212 18.9232 228.522 19.1327 228.775 19.402C229.028 19.6713 229.216 19.9936 229.326 20.345C229.436 20.6963 229.465 21.0677 229.411 21.4317V26.3128H227.911V21.8054C227.911 20.5937 227.38 19.9911 226.27 19.9911C226.019 19.9795 225.768 20.0219 225.535 20.1154C225.302 20.2089 225.092 20.3513 224.92 20.5327C224.747 20.7142 224.616 20.9305 224.536 21.1669C224.456 21.4032 224.428 21.6539 224.455 21.9019V26.313H222.954L222.954 18.7729ZM237.889 16.8956V18.8072H239.536V20.0606H237.889V23.9377C237.889 24.7276 238.217 25.0735 238.964 25.0735C239.155 25.0729 239.346 25.0614 239.536 25.039V26.2787C239.267 26.3265 238.994 26.3519 238.72 26.3547C237.052 26.3547 236.387 25.7725 236.387 24.3188V20.0606H235.18V18.807H236.387V16.8958L237.889 16.8956ZM241.586 15.8293H243.073V19.9846H243.192C243.391 19.5503 243.721 19.1876 244.136 18.9459C244.55 18.7041 245.03 18.5951 245.51 18.6337C245.878 18.6139 246.246 18.6748 246.587 18.8122C246.929 18.9496 247.236 19.16 247.486 19.4285C247.736 19.697 247.923 20.017 248.034 20.3655C248.145 20.7141 248.177 21.0826 248.128 21.4449V26.313H246.626V21.8119C246.626 20.6075 246.061 19.9976 245.001 19.9976C244.743 19.9767 244.483 20.0118 244.24 20.1007C243.998 20.1895 243.778 20.3299 243.595 20.512C243.413 20.694 243.273 20.9134 243.185 21.1548C243.097 21.3961 243.063 21.6536 243.086 21.9092V26.313H241.586V15.8293ZM256.877 24.277C256.673 24.9661 256.231 25.5623 255.629 25.9611C255.027 26.3599 254.302 26.536 253.583 26.4585C253.082 26.4716 252.584 26.3765 252.124 26.1797C251.664 25.9829 251.252 25.6892 250.918 25.3189C250.584 24.9486 250.335 24.5106 250.189 24.0353C250.042 23.5601 250.002 23.0589 250.071 22.5666C250.004 22.0728 250.045 21.5706 250.191 21.0939C250.337 20.6172 250.584 20.1771 250.917 19.8036C251.249 19.43 251.659 19.1317 252.117 18.9287C252.576 18.7258 253.074 18.6229 253.576 18.6272C255.691 18.6272 256.968 20.0606 256.968 22.4283V22.9476H251.599V23.031C251.576 23.3077 251.611 23.5862 251.702 23.8487C251.793 24.1111 251.939 24.3518 252.13 24.5552C252.32 24.7585 252.552 24.9202 252.809 25.0297C253.066 25.1392 253.344 25.1942 253.624 25.1911C253.983 25.2338 254.346 25.1697 254.668 25.007C254.99 24.8442 255.256 24.5901 255.432 24.277H256.877ZM251.599 21.8471H255.439C255.458 21.594 255.423 21.3399 255.337 21.1009C255.251 20.8619 255.116 20.6434 254.94 20.4595C254.763 20.2755 254.55 20.1301 254.314 20.0327C254.078 19.9353 253.823 19.888 253.568 19.8938C253.308 19.8906 253.051 19.9389 252.81 20.0359C252.57 20.1329 252.352 20.2767 252.168 20.4587C251.985 20.6408 251.84 20.8574 251.742 21.0959C251.644 21.3343 251.596 21.5897 251.599 21.8471Z" fill="white"/>
<g filter="url(#filter1_dddddd_40_1602)">
<path d="M497.556 1.70117H310.483C306.367 1.70117 303 5.46882 303 10.0738V60.309C303 64.914 306.367 68.6816 310.483 68.6816H497.556C501.672 68.6816 505.039 64.914 505.039 60.3091V10.0738C505.039 5.46882 501.672 1.70117 497.556 1.70117Z" fill="black"/>
<path fill-rule="evenodd" clip-rule="evenodd" d="M310.483 1.70117H497.556C501.672 1.70117 505.039 5.46882 505.039 10.0738V60.3091C505.039 64.914 501.672 68.6816 497.556 68.6816H310.483C306.367 68.6816 303 64.914 303 60.309V10.0738C303 5.46882 306.367 1.70117 310.483 1.70117Z" fill="black"/>
</g>
<path d="M496.706 67.7012H311.373C307.34 67.7012 304.04 64.0449 304.04 59.5762V10.8262C304.04 6.35742 307.34 2.70117 311.373 2.70117H496.706C500.74 2.70117 504.04 6.35742 504.04 10.8262V59.5761C504.04 64.0449 500.74 67.7012 496.706 67.7012Z" fill="black"/>
<path d="M373.966 18.854C373.966 20.2569 373.594 21.3741 372.851 22.2075C372.006 23.1984 370.905 23.6943 369.552 23.6943C368.256 23.6943 367.154 23.192 366.248 22.1859C365.34 21.1805 364.887 19.9338 364.887 18.4464C364.887 16.9582 365.34 15.7123 366.248 14.7061C367.154 13.7008 368.256 13.1978 369.552 13.1978C370.195 13.1978 370.811 13.3385 371.395 13.6191C371.98 13.9004 372.449 14.2738 372.799 14.7415L372.01 15.6251C371.416 14.8304 370.597 14.4334 369.552 14.4334C368.607 14.4334 367.789 14.805 367.099 15.5487C366.41 16.2931 366.065 17.2585 366.065 18.4464C366.065 19.6343 366.41 20.5996 367.099 21.3441C367.789 22.0878 368.606 22.4593 369.552 22.4593C370.554 22.4593 371.39 22.0858 372.06 21.3376C372.494 20.8501 372.745 20.1726 372.813 19.3026H369.552V18.0957H373.903C373.945 18.3582 373.966 18.61 373.966 18.854" fill="white"/>
<path d="M373.966 18.854H373.816C373.815 20.2249 373.457 21.2898 372.745 22.0891L372.743 22.0905L372.743 22.0918C371.925 23.0487 370.873 23.5249 369.552 23.5269C368.29 23.5249 367.234 23.0435 366.353 22.0675C365.473 21.0896 365.038 19.8958 365.036 18.4464C365.038 16.9963 365.473 15.8031 366.353 14.8259C367.234 13.8493 368.29 13.3672 369.552 13.3652C370.175 13.3652 370.769 13.5014 371.336 13.7728C371.903 14.0462 372.351 14.4046 372.685 14.8495L372.799 14.7415L372.693 14.6231L371.904 15.5074L372.01 15.6251L372.125 15.518C371.503 14.6839 370.63 14.2634 369.552 14.2659C368.571 14.2646 367.709 14.6565 366.996 15.4284C366.276 16.2028 365.914 17.2226 365.915 18.4464C365.914 19.6703 366.276 20.6899 366.996 21.4644C367.709 22.2363 368.571 22.6282 369.552 22.6268C370.588 22.6289 371.47 22.2357 372.165 21.456C372.63 20.9352 372.893 20.2139 372.962 19.317L372.976 19.1351H369.701V18.2632H373.903V18.0958L373.756 18.1252C373.796 18.3791 373.816 18.6204 373.816 18.854H374.115C374.115 18.5995 374.094 18.3379 374.05 18.0658L374.028 17.9283H369.402V19.47H372.813V19.3026L372.664 19.2882C372.598 20.1308 372.358 20.7653 371.954 21.2193C371.311 21.9361 370.522 22.2899 369.552 22.2919C368.641 22.2906 367.869 21.94 367.203 21.2237C366.544 20.5101 366.216 19.5989 366.214 18.4464C366.216 17.2938 366.544 16.3827 367.203 15.669C367.869 14.9528 368.641 14.6022 369.552 14.6008C370.564 14.6035 371.328 14.9776 371.895 15.7331L372.001 15.8731L372.905 14.8599L373.002 14.7514L372.914 14.6342C372.546 14.1437 372.056 13.7544 371.454 13.4654C370.851 13.1755 370.214 13.0303 369.552 13.0303C368.221 13.029 367.073 13.5523 366.142 14.5878C365.207 15.6213 364.736 16.9204 364.737 18.4464C364.736 19.9717 365.207 21.2715 366.142 22.3056C367.073 23.3405 368.221 23.8632 369.552 23.8618C370.937 23.8632 372.087 23.3483 372.959 22.3233L372.851 22.2075L372.956 22.326C373.732 21.4592 374.116 20.2884 374.115 18.854H373.966H373.966ZM380.864 14.6571H376.774V17.8427H380.462V19.05H376.774V22.2357H380.864V23.4699H375.622V13.4228H380.864V14.6571Z" fill="white"/>
<path d="M380.864 14.6571V14.4897H376.625V18.0101H380.313V18.8821L376.625 18.8825V22.403H380.714V23.3024H375.771V13.5903H380.714V14.6571H380.864V14.4897V14.6571H381.014V13.2554H375.472V23.6373H381.014V22.0681H376.924V19.2174H380.612V17.6753H376.924V14.8245H381.014V14.6571H380.864ZM385.73 23.4699H384.575V14.657H382.067V13.4227H388.238V14.657H385.73V23.4698" fill="white"/>
<path d="M385.73 23.4699V23.3024H384.725V14.4897H382.217V13.5903H388.088V14.4897H385.58V23.4699H385.73V23.3024V23.4699H385.879V14.8245H388.387V13.2554H381.917V14.8245H384.425V23.6372H385.879V23.4698H385.73V23.4699ZM392.702 23.4699V13.4227H393.856V23.4698H392.702" fill="white"/>
<path d="M392.702 23.4699H392.852V13.5903H393.706V23.3024H392.702V23.4699H392.852H392.702V23.6373H394.005V13.2554H392.552V23.6373H392.702V23.4699V23.4699ZM398.974 23.4699H397.819V14.657H395.311V13.4227H401.482V14.657H398.974V23.4698" fill="white"/>
<path d="M398.974 23.47V23.3024H397.969V14.4897H395.461V13.5904H401.332V14.4897H398.824V23.4699H398.974V23.3024V23.4699H399.124V14.8246H401.632V13.2554H395.162V14.8245H397.67V23.6372H399.124V23.4698H398.974V23.47ZM407.431 21.3304C408.095 22.0832 408.909 22.4593 409.87 22.4593C410.832 22.4593 411.646 22.0832 412.309 21.3304C412.975 20.5775 413.308 19.6152 413.308 18.4464C413.308 17.2776 412.975 16.3153 412.309 15.5624C411.646 14.8095 410.832 14.4334 409.87 14.4334C408.909 14.4334 408.095 14.8095 407.431 15.5624C406.767 16.3153 406.434 17.2776 406.434 18.4464C406.434 19.6152 406.767 20.5775 407.431 21.3304ZM413.163 22.1715C412.28 23.1872 411.182 23.6943 409.87 23.6943C408.557 23.6943 407.46 23.1872 406.579 22.1715C405.696 21.1569 405.256 19.9149 405.256 18.4464C405.256 16.9778 405.696 15.7356 406.579 14.7212C407.46 13.7053 408.557 13.1978 409.87 13.1978C411.175 13.1978 412.27 13.708 413.157 14.7278C414.043 15.7475 414.486 16.987 414.486 18.4464C414.486 19.9149 414.044 21.1569 413.163 22.1715Z" fill="white"/>
<path d="M407.431 21.3305L407.324 21.4482C408.013 22.2311 408.873 22.6289 409.87 22.6268C410.866 22.6289 411.727 22.2311 412.416 21.4482C413.109 20.6644 413.458 19.6506 413.457 18.4464C413.458 17.2423 413.109 16.2283 412.416 15.4446C411.727 14.6616 410.866 14.264 409.87 14.2659C408.873 14.264 408.013 14.6616 407.324 15.4446C406.632 16.2283 406.282 17.2423 406.284 18.4464C406.282 19.6505 406.632 20.6644 407.324 21.4482L407.431 21.3305L407.537 21.2127C406.902 20.4898 406.585 19.5806 406.583 18.4464C406.585 17.3123 406.902 16.403 407.537 15.6801C408.178 14.9574 408.943 14.6029 409.87 14.6009C410.797 14.6029 411.564 14.9574 412.203 15.6801C412.839 16.403 413.156 17.3123 413.157 18.4464C413.156 19.5805 412.839 20.4898 412.203 21.2127C411.564 21.9355 410.797 22.2899 409.87 22.2919C408.943 22.2899 408.178 21.9355 407.537 21.2127L407.431 21.3305ZM413.163 22.1715L413.056 22.0552C412.197 23.039 411.148 23.525 409.87 23.5269C408.592 23.5249 407.542 23.039 406.686 22.0552L406.682 22.0499L406.686 22.0552C405.829 21.068 405.407 19.8776 405.406 18.4464C405.407 17.0151 405.829 15.8247 406.686 14.8377C407.542 13.8538 408.592 13.3672 409.87 13.3652C411.14 13.3672 412.187 13.8558 413.05 14.8448C413.909 15.8365 414.334 17.025 414.336 18.4464C414.334 19.8776 413.91 21.068 413.056 22.0552L413.163 22.1715L413.27 22.2879C414.177 21.2453 414.636 19.9521 414.635 18.4464C414.636 16.9492 414.176 15.6586 413.264 14.6114C412.352 13.5601 411.21 13.0285 409.87 13.0303C408.523 13.0285 407.377 13.5576 406.471 14.6049V14.6041C405.562 15.6474 405.105 16.9406 405.106 18.4464C405.105 19.9521 405.562 21.2453 406.471 22.2886L406.475 22.2933L406.471 22.2879C407.377 23.3352 408.523 23.8632 409.87 23.8618C411.216 23.8632 412.362 23.3352 413.27 22.2879L413.163 22.1715ZM416.105 23.47V13.4227H417.509L421.873 21.2387H421.923L421.873 19.3025V13.4227H423.028V23.4699H421.823L417.258 15.2751H417.208L417.258 17.212V23.4699H416.105" fill="white"/>
<path d="M416.105 23.4699H416.255V13.5903H417.426L421.79 21.4062H422.077L422.023 19.3V13.5903H422.878V23.3024H421.907L417.341 15.1077H417.054L417.108 17.2148V23.3024H416.105V23.4699H416.255H416.105V23.6373H417.407V17.2094L417.358 15.2707L417.208 15.2752V15.4426H417.258V15.2752L417.131 15.3642L421.74 23.6373H423.177V13.2554H421.724V19.3045L421.773 21.2432L421.923 21.2387V21.0713H421.873V21.2387L422 21.1498L417.592 13.2554H415.955V23.6373H416.105V23.4699L416.105 23.4699ZM463.039 51.9365H465.831V31.0032H463.039L463.039 51.9365ZM488.192 38.5439L484.991 47.6195H484.895L481.572 38.5438H478.564L483.546 51.2287L480.706 58.2846H483.62L491.297 38.5438L488.192 38.5439ZM472.355 49.5589C471.439 49.5589 470.164 49.0473 470.164 47.7811C470.164 46.1653 471.753 45.5459 473.124 45.5459C474.353 45.5459 474.929 45.8422 475.676 46.2466C475.459 48.1853 473.967 49.5589 472.355 49.5589ZM472.692 38.0859C470.67 38.0859 468.576 39.0826 467.71 41.291L470.188 42.4488C470.718 41.291 471.704 40.9135 472.74 40.9135C474.184 40.9135 475.652 41.8836 475.676 43.6072V43.8224C475.17 43.4992 474.088 43.0145 472.764 43.0145C470.092 43.0145 467.371 44.6569 467.371 47.7273C467.371 50.5283 469.562 52.3329 472.017 52.3329C473.895 52.3329 474.929 51.3903 475.58 50.2863H475.676V51.9019H478.371V43.8759C478.371 40.1601 475.893 38.0859 472.692 38.0859ZM455.433 41.092H451.461V33.9166H455.433C457.521 33.9166 458.706 35.8507 458.706 37.5043C458.706 39.1265 457.521 41.092 455.433 41.092ZM455.361 31.0032H448.67V51.9365H451.461V44.0055H455.361C458.456 44.0055 461.499 41.4983 461.499 37.5043C461.499 33.5104 458.456 31.0032 455.361 31.0032ZM418.873 49.5628C416.944 49.5628 415.328 47.7555 415.328 45.2731C415.328 42.7648 416.944 40.9299 418.873 40.9299C420.778 40.9299 422.272 42.7647 422.272 45.2731C422.272 47.7555 420.778 49.5628 418.873 49.5628H418.873ZM422.08 39.716H421.983C421.356 38.8799 420.15 38.1245 418.632 38.1245C415.449 38.1245 412.532 41.2537 412.532 45.2731C412.532 49.2659 415.449 52.3682 418.632 52.3682C420.15 52.3682 421.356 51.6127 421.983 50.7499H422.08V51.7749C422.08 54.5 420.778 55.9567 418.68 55.9567C416.968 55.9567 415.907 54.5804 415.473 53.4206L413.038 54.5536C413.737 56.4419 415.594 58.7622 418.68 58.7622C421.959 58.7622 424.732 56.6035 424.732 51.3433V38.5562H422.08V39.716ZM426.66 51.9365H429.457V31.0024H426.66V51.9365ZM433.58 45.0305C433.508 42.2786 435.485 40.8762 436.907 40.8762C438.017 40.8762 438.957 41.4963 439.27 42.3874L433.58 45.0305ZM442.26 42.6567C441.73 41.0646 440.114 38.1245 436.811 38.1245C433.532 38.1245 430.808 41.011 430.808 45.2464C430.808 49.2391 433.508 52.3682 437.124 52.3682C440.042 52.3682 441.73 50.3718 442.429 49.2121L440.259 47.5932C439.536 48.7804 438.547 49.5628 437.124 49.5628C435.702 49.5628 434.69 48.8341 434.038 47.4048L442.549 43.4659L442.26 42.6567ZM374.453 40.3098V43.3311H380.914C380.721 45.0305 380.215 46.2713 379.443 47.1347C378.503 48.1871 377.032 49.3469 374.452 49.3469C370.474 49.3469 367.364 45.7591 367.364 41.3079C367.364 36.8568 370.474 33.2685 374.453 33.2685C376.598 33.2685 378.165 34.2129 379.323 35.4268L381.227 33.2959C379.612 31.5689 377.466 30.2471 374.453 30.2471C369.003 30.2471 364.422 35.2111 364.422 41.3079C364.422 47.4048 369.003 52.3682 374.453 52.3682C377.394 52.3682 379.612 51.2897 381.348 49.2659C383.132 47.2695 383.687 44.4641 383.687 42.1982C383.687 41.4963 383.639 40.8494 383.542 40.3098H374.453ZM391.033 49.5628C389.104 49.5628 387.44 47.7822 387.44 45.2464C387.44 42.6835 389.104 40.9299 391.033 40.9299C392.962 40.9299 394.625 42.6835 394.625 45.2464C394.625 47.7823 392.962 49.5628 391.033 49.5628ZM391.033 38.1245C387.512 38.1245 384.643 41.1188 384.643 45.2464C384.643 49.3469 387.512 52.3682 391.033 52.3682C394.553 52.3682 397.422 49.3469 397.422 45.2464C397.422 41.1188 394.553 38.1245 391.033 38.1245ZM404.971 49.5628C403.043 49.5628 401.379 47.7822 401.379 45.2464C401.379 42.6835 403.043 40.9299 404.971 40.9299C406.9 40.9299 408.563 42.6835 408.563 45.2464C408.563 47.7823 406.9 49.5628 404.971 49.5628H404.971ZM404.971 38.1245C401.451 38.1245 398.582 41.1188 398.582 45.2464C398.582 49.3469 401.451 52.3682 404.971 52.3682C408.491 52.3682 411.36 49.3469 411.36 45.2464C411.36 41.1188 408.491 38.1245 404.971 38.1245H404.971Z" fill="white"/>
<path d="M318.727 14.4469C318.225 14.9539 317.925 15.7996 317.925 16.9221V16.6683V53.7103V53.4663C317.925 54.503 318.182 55.3035 318.618 55.8191L318.729 55.9382V55.9387C319.081 56.2946 319.533 56.4836 320.051 56.4829C320.557 56.4829 321.127 56.3024 321.728 55.9212L343.451 42.111L350.913 37.3668C351.861 36.7644 352.393 35.9873 352.482 35.1958V35.1925C352.393 34.3992 351.861 33.6227 350.913 33.0203L343.451 28.2766L321.728 14.4665C321.126 14.0845 320.556 13.9033 320.048 13.9033C319.531 13.9033 319.08 14.0917 318.727 14.4469H318.727Z" fill="#00C1FF"/>
<path d="M318.729 55.9375L318.618 55.8184C318.182 55.3029 317.925 54.5023 317.925 53.4656V53.7096V16.6768V16.9214C317.925 15.7989 318.225 14.9532 318.727 14.4462L337.269 35.1925L318.729 55.9375Z" fill="url(#paint0_linear_40_1602)"/>
<path d="M343.451 42.1108L337.269 35.193L343.45 28.2764L350.913 33.02C351.86 33.6225 352.392 34.3989 352.481 35.1924V35.1955C352.392 35.9871 351.86 36.7643 350.913 37.3665L343.451 42.1108" fill="url(#paint1_linear_40_1602)"/>
<path d="M320.051 56.4824C319.533 56.4829 319.081 56.2939 318.729 55.9381V55.9376L337.269 35.1924L343.451 42.1102L321.728 55.9206C321.127 56.3019 320.557 56.4824 320.051 56.4824Z" fill="url(#paint2_linear_40_1602)"/>
<path d="M337.269 35.1934L318.727 14.4469C319.079 14.0917 319.531 13.9033 320.048 13.9033C320.555 13.9033 321.125 14.0845 321.728 14.4665L343.45 28.2767L337.269 35.1934" fill="url(#paint3_linear_40_1602)"/>
<path d="M320.052 56.7285C319.534 56.7285 319.081 56.5395 318.729 56.1837L318.728 56.1843C318.727 56.1826 318.725 56.1811 318.724 56.1797L318.627 56.0744C318.624 56.0711 318.621 56.0672 318.618 56.0634L318.729 55.939C319.081 56.2948 319.533 56.4839 320.051 56.4832C320.557 56.4832 321.127 56.3027 321.728 55.9214L343.451 42.1112L343.59 42.267L343.449 42.3566L321.728 56.166C321.18 56.5134 320.659 56.6945 320.189 56.7247C320.143 56.7272 320.097 56.7284 320.052 56.7284" fill="url(#paint4_linear_40_1602)"/>
<path d="M318.618 56.0625C318.182 55.547 317.925 54.7471 317.925 53.7098V53.4658C317.925 54.5024 318.182 55.303 318.618 55.8185L318.729 55.9376L318.618 56.0625Z" fill="url(#paint5_linear_40_1602)"/>
<path d="M343.59 42.2655L343.451 42.1098L350.913 37.3658C351.86 36.7635 352.392 35.9863 352.481 35.1948C352.481 35.4853 352.423 35.7757 352.308 36.0584C352.076 36.628 351.611 37.1663 350.913 37.6104L343.59 42.2656" fill="url(#paint6_linear_40_1602)"/>
<path d="M352.481 35.1929C352.392 34.3994 351.86 33.623 350.913 33.0205L343.45 28.277L343.589 28.1212H343.59L350.913 32.7765C351.957 33.4411 352.481 34.3169 352.481 35.1929Z" fill="url(#paint7_linear_40_1602)"/>
<path d="M317.925 16.9214V16.6655C317.925 16.5733 317.927 16.483 317.932 16.3954V16.3914C317.932 16.3902 317.932 16.3889 317.932 16.3876V16.3777C317.977 15.4848 318.225 14.7883 318.618 14.3232L318.727 14.4461C318.225 14.9532 317.925 15.7989 317.925 16.9214Z" fill="url(#paint8_linear_40_1602)"/>
<path d="M343.45 28.2764L321.728 14.4659C321.125 14.084 320.556 13.9029 320.048 13.9029C319.531 13.9029 319.079 14.0912 318.727 14.4464L318.617 14.3235C318.652 14.283 318.687 14.244 318.724 14.2065C318.725 14.2051 318.727 14.2037 318.728 14.2025C319.078 13.85 319.524 13.6616 320.037 13.6582H320.048C320.556 13.6582 321.125 13.8394 321.728 14.2215L343.59 28.1201L343.589 28.1206L343.45 28.2764Z" fill="url(#paint9_linear_40_1602)"/>
<defs>
<filter id="filter0_dddddd_40_1602" x="0" y="0.404876" width="362.039" height="248.276" filterUnits="userSpaceOnUse" color-interpolation-filters="sRGB">
<feFlood flood-opacity="0" result="BackgroundImageFix"/>
<feColorMatrix in="SourceAlpha" type="matrix" values="0 0 0 0 0 0 0 0 0 0 0 0 0 0 0 0 0 0 127 0" result="hardAlpha"/>
<feOffset dy="1.85185"/>
<feGaussianBlur stdDeviation="1.57407"/>
<feColorMatrix type="matrix" values="0 0 0 0 0.219608 0 0 0 0 0.219608 0 0 0 0 0.219608 0 0 0 0.0240741 0"/>
<feBlend mode="normal" in2="BackgroundImageFix" result="effect1_dropShadow_40_1602"/>
<feColorMatrix in="SourceAlpha" type="matrix" values="0 0 0 0 0 0 0 0 0 0 0 0 0 0 0 0 0 0 127 0" result="hardAlpha"/>
<feOffset dy="8.14815"/>
<feGaussianBlur stdDeviation="3.25926"/>
<feColorMatrix type="matrix" values="0 0 0 0 0.219608 0 0 0 0 0.219608 0 0 0 0 0.219608 0 0 0 0.0392593 0"/>
<feBlend mode="normal" in2="effect1_dropShadow_40_1602" result="effect2_dropShadow_40_1602"/>
<feColorMatrix in="SourceAlpha" type="matrix" values="0 0 0 0 0 0 0 0 0 0 0 0 0 0 0 0 0 0 127 0" result="hardAlpha"/>
<feOffset dy="20"/>
<feGaussianBlur stdDeviation="6.5"/>
<feColorMatrix type="matrix" values="0 0 0 0 0.219608 0 0 0 0 0.219608 0 0 0 0 0.219608 0 0 0 0.05 0"/>
<feBlend mode="normal" in2="effect2_dropShadow_40_1602" result="effect3_dropShadow_40_1602"/>
<feColorMatrix in="SourceAlpha" type="matrix" values="0 0 0 0 0 0 0 0 0 0 0 0 0 0 0 0 0 0 127 0" result="hardAlpha"/>
<feOffset dy="38.5185"/>
<feGaussianBlur stdDeviation="12.7407"/>
<feColorMatrix type="matrix" values="0 0 0 0 0.219608 0 0 0 0 0.219608 0 0 0 0 0.219608 0 0 0 0.0607407 0"/>
<feBlend mode="normal" in2="effect3_dropShadow_40_1602" result="effect4_dropShadow_40_1602"/>
<feColorMatrix in="SourceAlpha" type="matrix" values="0 0 0 0 0 0 0 0 0 0 0 0 0 0 0 0 0 0 127 0" result="hardAlpha"/>
<feOffset dy="64.8148"/>
<feGaussianBlur stdDeviation="23.4259"/>
<feColorMatrix type="matrix" values="0 0 0 0 0.219608 0 0 0 0 0.219608 0 0 0 0 0.219608 0 0 0 0.0759259 0"/>
<feBlend mode="normal" in2="effect4_dropShadow_40_1602" result="effect5_dropShadow_40_1602"/>
<feColorMatrix in="SourceAlpha" type="matrix" values="0 0 0 0 0 0 0 0 0 0 0 0 0 0 0 0 0 0 127 0" result="hardAlpha"/>
<feOffset dy="100"/>
<feGaussianBlur stdDeviation="40"/>
<feColorMatrix type="matrix" values="0 0 0 0 0.219608 0 0 0 0 0.219608 0 0 0 0 0.219608 0 0 0 0.1 0"/>
<feBlend mode="normal" in2="effect5_dropShadow_40_1602" result="effect6_dropShadow_40_1602"/>
<feBlend mode="normal" in="SourceGraphic" in2="effect6_dropShadow_40_1602" result="shape"/>
</filter>
<filter id="filter1_dddddd_40_1602" x="223" y="0.404876" width="362.039" height="248.277" filterUnits="userSpaceOnUse" color-interpolation-filters="sRGB">
<feFlood flood-opacity="0" result="BackgroundImageFix"/>
<feColorMatrix in="SourceAlpha" type="matrix" values="0 0 0 0 0 0 0 0 0 0 0 0 0 0 0 0 0 0 127 0" result="hardAlpha"/>
<feOffset dy="1.85185"/>
<feGaussianBlur stdDeviation="1.57407"/>
<feColorMatrix type="matrix" values="0 0 0 0 0.219608 0 0 0 0 0.219608 0 0 0 0 0.219608 0 0 0 0.0240741 0"/>
<feBlend mode="normal" in2="BackgroundImageFix" result="effect1_dropShadow_40_1602"/>
<feColorMatrix in="SourceAlpha" type="matrix" values="0 0 0 0 0 0 0 0 0 0 0 0 0 0 0 0 0 0 127 0" result="hardAlpha"/>
<feOffset dy="8.14815"/>
<feGaussianBlur stdDeviation="3.25926"/>
<feColorMatrix type="matrix" values="0 0 0 0 0.219608 0 0 0 0 0.219608 0 0 0 0 0.219608 0 0 0 0.0392593 0"/>
<feBlend mode="normal" in2="effect1_dropShadow_40_1602" result="effect2_dropShadow_40_1602"/>
<feColorMatrix in="SourceAlpha" type="matrix" values="0 0 0 0 0 0 0 0 0 0 0 0 0 0 0 0 0 0 127 0" result="hardAlpha"/>
<feOffset dy="20"/>
<feGaussianBlur stdDeviation="6.5"/>
<feColorMatrix type="matrix" values="0 0 0 0 0.219608 0 0 0 0 0.219608 0 0 0 0 0.219608 0 0 0 0.05 0"/>
<feBlend mode="normal" in2="effect2_dropShadow_40_1602" result="effect3_dropShadow_40_1602"/>
<feColorMatrix in="SourceAlpha" type="matrix" values="0 0 0 0 0 0 0 0 0 0 0 0 0 0 0 0 0 0 127 0" result="hardAlpha"/>
<feOffset dy="38.5185"/>
<feGaussianBlur stdDeviation="12.7407"/>
<feColorMatrix type="matrix" values="0 0 0 0 0.219608 0 0 0 0 0.219608 0 0 0 0 0.219608 0 0 0 0.0607407 0"/>
<feBlend mode="normal" in2="effect3_dropShadow_40_1602" result="effect4_dropShadow_40_1602"/>
<feColorMatrix in="SourceAlpha" type="matrix" values="0 0 0 0 0 0 0 0 0 0 0 0 0 0 0 0 0 0 127 0" result="hardAlpha"/>
<feOffset dy="64.8148"/>
<feGaussianBlur stdDeviation="23.4259"/>
<feColorMatrix type="matrix" values="0 0 0 0 0.219608 0 0 0 0 0.219608 0 0 0 0 0.219608 0 0 0 0.0759259 0"/>
<feBlend mode="normal" in2="effect4_dropShadow_40_1602" result="effect5_dropShadow_40_1602"/>
<feColorMatrix in="SourceAlpha" type="matrix" values="0 0 0 0 0 0 0 0 0 0 0 0 0 0 0 0 0 0 127 0" result="hardAlpha"/>
<feOffset dy="100"/>
<feGaussianBlur stdDeviation="40"/>
<feColorMatrix type="matrix" values="0 0 0 0 0.219608 0 0 0 0 0.219608 0 0 0 0 0.219608 0 0 0 0.1 0"/>
<feBlend mode="normal" in2="effect5_dropShadow_40_1602" result="effect6_dropShadow_40_1602"/>
<feBlend mode="normal" in="SourceGraphic" in2="effect6_dropShadow_40_1602" result="shape"/>
</filter>
<linearGradient id="paint0_linear_40_1602" x1="329.775" y1="16.2854" x2="312.03" y2="32.1958" gradientUnits="userSpaceOnUse">
<stop stop-color="#00A0FF"/>
<stop offset="0.00657" stop-color="#00A1FF"/>
<stop offset="0.2601" stop-color="#00BEFF"/>
<stop offset="0.5122" stop-color="#00D2FF"/>
<stop offset="0.7604" stop-color="#00DFFF"/>
<stop offset="1" stop-color="#00E3FF"/>
</linearGradient>
<linearGradient id="paint1_linear_40_1602" x1="353.636" y1="35.0735" x2="317.423" y2="35.0735" gradientUnits="userSpaceOnUse">
<stop stop-color="#FFE000"/>
<stop offset="0.4087" stop-color="#FFBD00"/>
<stop offset="0.7754" stop-color="#FFA500"/>
<stop offset="1" stop-color="#FF9C00"/>
</linearGradient>
<linearGradient id="paint2_linear_40_1602" x1="340.169" y1="41.7696" x2="310.124" y2="68.5123" gradientUnits="userSpaceOnUse">
<stop stop-color="#FF3A44"/>
<stop offset="1" stop-color="#C31162"/>
</linearGradient>
<linearGradient id="paint3_linear_40_1602" x1="313.948" y1="11.3711" x2="327.341" y2="23.3101" gradientUnits="userSpaceOnUse">
<stop stop-color="#32A071"/>
<stop offset="0.0685" stop-color="#2DA771"/>
<stop offset="0.4762" stop-color="#15CF74"/>
<stop offset="0.8009" stop-color="#06E775"/>
<stop offset="1" stop-color="#00F076"/>
</linearGradient>
<linearGradient id="paint4_linear_40_1602" x1="340.156" y1="46.5691" x2="316.075" y2="68.1612" gradientUnits="userSpaceOnUse">
<stop stop-color="#CC2E36"/>
<stop offset="1" stop-color="#9C0E4E"/>
</linearGradient>
<linearGradient id="paint5_linear_40_1602" x1="320.395" y1="16.2873" x2="304.763" y2="30.3043" gradientUnits="userSpaceOnUse">
<stop stop-color="#008DE0"/>
<stop offset="0.00657" stop-color="#008DE0"/>
<stop offset="0.2601" stop-color="#00A7E0"/>
<stop offset="0.5122" stop-color="#00B8E0"/>
<stop offset="0.7604" stop-color="#00C4E0"/>
<stop offset="1" stop-color="#00C7E0"/>
</linearGradient>
<linearGradient id="paint6_linear_40_1602" x1="353.636" y1="35.1933" x2="317.423" y2="35.1933" gradientUnits="userSpaceOnUse">
<stop stop-color="#E0C500"/>
<stop offset="0.4087" stop-color="#E0A600"/>
<stop offset="0.7754" stop-color="#E09100"/>
<stop offset="1" stop-color="#E08900"/>
</linearGradient>
<linearGradient id="paint7_linear_40_1602" x1="353.636" y1="35.1945" x2="317.423" y2="35.1945" gradientUnits="userSpaceOnUse">
<stop stop-color="#FFE840"/>
<stop offset="0.4087" stop-color="#FFCE40"/>
<stop offset="0.7754" stop-color="#FFBC40"/>
<stop offset="1" stop-color="#FFB540"/>
</linearGradient>
<linearGradient id="paint8_linear_40_1602" x1="320.38" y1="16.3138" x2="305.396" y2="29.167" gradientUnits="userSpaceOnUse">
<stop stop-color="#40B8FF"/>
<stop offset="0.00657" stop-color="#40B9FF"/>
<stop offset="0.2601" stop-color="#40CEFF"/>
<stop offset="0.5122" stop-color="#40DDFF"/>
<stop offset="0.7604" stop-color="#40E7FF"/>
<stop offset="1" stop-color="#40EAFF"/>
</linearGradient>
<linearGradient id="paint9_linear_40_1602" x1="313.921" y1="15.7582" x2="324.674" y2="25.4001" gradientUnits="userSpaceOnUse">
<stop stop-color="#65B895"/>
<stop offset="0.0685" stop-color="#62BD95"/>
<stop offset="0.4762" stop-color="#50DB97"/>
<stop offset="0.8009" stop-color="#44ED98"/>
<stop offset="1" stop-color="#40F498"/>
</linearGradient>
</defs>
</svg>
